<svg xmlns="http://www.w3.org/2000/svg" viewBox="0 0 32 32" width="32" height="32">
  <defs>
    <linearGradient id="g" x1="0" y1="0" x2="1" y2="1">
      <stop offset="0%" stop-color="#fbbf24"/>
      <stop offset="100%" stop-color="#f97316"/>
    </linearGradient>
  </defs>
  <rect width="32" height="32" rx="9" fill="url(#g)"/>
  <path d="M16 6c.55 5.6 2.8 7.85 8.4 8.4-5.6.55-7.85 2.8-8.4 8.4-.55-5.6-2.8-7.85-8.4-8.4 5.6-.55 7.85-2.8 8.4-8.4z" fill="#1a1205" fill-opacity="0.9"/>
  <path d="M24 5.5c.16 1.6.8 2.24 2.4 2.4-1.6.16-2.24.8-2.4 2.4-.16-1.6-.8-2.24-2.4-2.4 1.6-.16 2.24-.8 2.4-2.4z" fill="#1a1205" fill-opacity="0.65"/>
</svg>
