<svg xmlns="http://www.w3.org/2000/svg" viewBox="0 0 32 32" width="32" height="32">

  

  
  <!-- Tapered corn cob shape (pure solid golden #fbbf24) -->
  <path 
    d="M 12.0 22 C 12.0 14, 13.5 7.5, 16 7.5 C 18.5 7.5, 20.0 14, 20.0 22 C 20.0 24.2, 18.5 25.2, 16 25.2 C 13.5 25.2, 12.0 24.2, 12.0 22 Z" 
    fill="#fbbf24" 
  />

  <!-- Left Green Flower Bracket { (upright, shifted outward for breathing room, thinned to 2.0, colored with tech green #4ade80) -->
  <path 
    d="M 8.0 7.5 C 6.5 7.5, 5.5 9.0, 5.5 11.0 L 5.5 15.0 C 5.5 16.35, 3.5 16.35, 3.5 16.35 C 3.5 16.35, 5.5 16.35, 5.5 17.7 L 5.5 21.7 C 5.5 23.7, 6.5 25.2, 8.0 25.2" 
    stroke="#4ade80" 
    stroke-width="2.0" 
    stroke-linecap="round" 
    stroke-linejoin="round" 
    fill="none"
  />

  <!-- Right Green Flower Bracket } (upright, perfectly symmetrical, shifted outward for breathing room, thinned to 2.0, colored with tech green #4ade80) -->
  <path 
    d="M 24.0 7.5 C 25.5 7.5, 26.5 9.0, 26.5 11.0 L 26.5 15.0 C 26.5 16.35, 28.5 16.35, 28.5 16.35 C 28.5 16.35, 26.5 16.35, 26.5 17.7 L 26.5 21.7 C 26.5 23.7, 25.5 25.2, 24.0 25.2" 
    stroke="#4ade80" 
    stroke-width="2.0" 
    stroke-linecap="round" 
    stroke-linejoin="round" 
    fill="none"
  />
</svg>
